# xmcd
#
# Track frame offsets:
#	150
#	25572
#	47782
#	72160
#	91770
#	114510
#	138470
#	167010
#	188130
#	211245
#	231457
#	260365
#	280427
#	304437
#
# Disc length: 4341 seconds
#
# Revision: 1
# Processed by: cddbd v1.5.1PL0 Copyright (c) Steve Scherf et al.
# Submitted via: CDex 1.50Beta5
#
DISCID=c710f30e
DTITLE=陣内大蔵 - Deep&Delightful〜Best Selection Album
DYEAR=1991
DGENRE=Pop
TTITLE0=Blow wind blow
TTITLE1=Dadaism
TTITLE2=深呼吸
TTITLE3=モナリザの背中
TTITLE4=瞳をあけたままで
TTITLE5=First Snow
TTITLE6=Praying Night
TTITLE7=風を見たくて
TTITLE8=好奇心
TTITLE9=自信がないよ
TTITLE10=ハトのように
TTITLE11=孤独の森
TTITLE12=いと小さき君の為に
TTITLE13=Tender is the Moon
EXTD=
EXTT0=
EXTT1=
EXTT2=
EXTT3=
EXTT4=
EXTT5=
EXTT6=
EXTT7=
EXTT8=
EXTT9=
EXTT10=
EXTT11=
EXTT12=
EXTT13=
PLAYORDER=
